<svg width="1000" height="1000" viewBox="0 0 1000 1000" fill="none" xmlns="http://www.w3.org/2000/svg">
<g clip-path="url(#clip0_573_295)">
<rect width="1000" height="1000" rx="250" fill="#232DFC"/>
<path d="M949.024 491.94L949.057 471C949.187 388.753 882.619 321.941 800.372 321.769L515.206 321.176L515.172 342.116C515.042 424.363 581.61 491.175 663.857 491.346L949.024 491.94Z" fill="white"/>
<path d="M948.981 519.013L948.961 531.536C948.831 613.783 882.051 680.318 799.805 680.147L514.638 679.554L514.658 667.03C514.788 584.784 581.568 518.248 663.814 518.419L948.981 519.013Z" fill="white"/>
<path d="M487.591 321.119L487.558 342.059C487.428 424.305 420.648 490.841 338.401 490.67L53.2345 490.076L53.2676 469.137C53.398 386.89 120.178 320.355 202.424 320.526L487.591 321.119Z" fill="white"/>
<path d="M51.901 517.147L51.8807 529.938C51.7504 612.184 118.319 678.997 200.565 679.168L487.023 679.764L487.043 666.973C487.173 584.726 420.605 517.914 338.358 517.742L51.901 517.147Z" fill="white"/>
</g>
<defs>
<clipPath id="clip0_573_295">
<rect width="1000" height="1000" rx="250" fill="white"/>
</clipPath>
</defs>
</svg>
